<svg width="186" height="222" viewBox="0 0 186 222" fill="none" xmlns="http://www.w3.org/2000/svg">
<path d="M182.968 51.3158L150.484 151.493C136.805 208.888 49.1954 208.888 35.5164 151.493L3.03206 51.3158L93 2.75333L182.968 51.3115V51.3158Z" fill="#EBD85C"/>
<path d="M93 196.925C79.4649 196.925 66.2548 192.936 55.8028 185.695C44.2643 177.695 36.3939 166.084 33.0415 152.1L0 50.1971L93 0L186 50.1971L152.954 152.1C149.601 166.084 141.731 177.695 130.193 185.695C119.745 192.936 106.535 196.925 92.9954 196.925H93ZM6.05946 52.4345L37.9866 150.891L38.0051 150.977C45.2486 181.372 72.1564 192.16 92.9954 192.16C113.834 192.16 140.742 181.376 147.986 150.977L148.037 150.804L179.936 52.4345L93 5.51097L6.05946 52.4345Z" fill="#592124"/>
<path d="M115.26 118.271C115.26 108.775 112.042 100.303 107.009 94.7574C100.768 87.8806 97.3554 79.1524 97.3554 70.1423V53.1368H88.6354V70.1423C88.6354 79.1567 85.2226 87.8806 78.982 94.7574C73.9487 100.303 70.7309 108.775 70.7309 118.271C70.7309 132.953 78.4248 145.193 88.6354 147.946V160.538H97.3554V147.946C107.561 145.193 115.26 132.953 115.26 118.271Z" fill="#592124"/>
<mask id="mask0_64_1296" style="mask-type:luminance" maskUnits="userSpaceOnUse" x="70" y="53" width="46" height="108">
<path d="M115.26 118.271C115.26 108.775 112.042 100.303 107.009 94.7574C100.768 87.8806 97.3554 79.1524 97.3554 70.1423V53.1368H88.6354V70.1423C88.6354 79.1567 85.2226 87.8806 78.982 94.7574C73.9487 100.303 70.7309 108.775 70.7309 118.271C70.7309 132.953 78.4248 145.193 88.6354 147.946V160.538H97.3554V147.946C107.561 145.193 115.26 132.953 115.26 118.271Z" fill="white"/>
</mask>
<g mask="url(#mask0_64_1296)">
<path d="M126.469 98.1785H59.4339V147.838H126.469V98.1785Z" fill="#9A8266"/>
</g>
<path d="M91.2403 38.9497H94.7599C97.5412 38.9497 99.8025 41.0613 99.8025 43.6586V63.9898H86.1977V43.6586C86.1977 41.0613 88.4589 38.9497 91.2403 38.9497Z" fill="#491D21"/>
<path d="M67.7313 136.005C67.7313 134.271 67.0116 132.645 65.6976 131.422C64.3835 130.195 62.6423 129.523 60.7896 129.523C58.937 129.523 57.1911 130.195 55.8817 131.422C54.5723 132.645 53.848 134.271 53.848 136.005C53.848 137.74 54.5677 139.366 55.8817 140.588C57.1911 141.811 58.937 142.488 60.7896 142.488C64.6157 142.488 67.7313 139.578 67.7313 136.005Z" fill="#491D21"/>
<path d="M132.152 136.005C132.152 134.271 131.432 132.645 130.118 131.422C128.804 130.195 127.063 129.523 125.21 129.523C123.358 129.523 121.612 130.195 120.302 131.422C118.993 132.645 118.269 134.271 118.269 136.005C118.269 137.74 118.988 139.366 120.302 140.588C121.612 141.811 123.358 142.488 125.21 142.488C129.036 142.488 132.152 139.578 132.152 136.005Z" fill="#491D21"/>
<path d="M140.06 158.283C139.47 151.051 133.048 145.453 125.21 145.453C121.742 145.453 118.487 146.533 115.803 148.58C114.628 149.473 113.611 150.522 112.78 151.701C111.958 152.863 110.584 153.557 109.107 153.557C107.631 153.557 106.257 152.863 105.435 151.701C102.667 147.79 98.0194 145.453 93.0046 145.453V142.483C96.8307 142.483 99.9463 139.574 99.9463 136.001C99.9463 134.267 99.2266 132.641 97.9126 131.418C96.5985 130.191 94.8573 129.519 93.0046 129.519C91.152 129.519 89.4061 130.191 88.0967 131.418C86.7827 132.641 86.063 134.267 86.063 136.001C86.063 137.735 86.7827 139.361 88.0967 140.584C89.4061 141.807 91.1473 142.483 93 142.483V145.453C87.9853 145.453 83.342 147.79 80.57 151.701C79.7481 152.863 78.3737 153.553 76.8971 153.553C75.4206 153.553 74.0462 152.859 73.2243 151.701C70.4569 147.79 65.809 145.453 60.7943 145.453C56.815 145.453 53.0772 146.902 50.2587 149.525C47.7328 151.884 46.2144 154.979 45.9405 158.283C56.7639 172.518 74.3155 181.004 93 181.004C111.685 181.004 129.236 172.518 140.06 158.283Z" fill="#491D21"/>
<path d="M143.268 158.652C142.957 151.606 138.095 145.748 131.381 143.485C133.782 141.755 135.333 139.045 135.333 136.001C135.333 133.473 134.279 131.097 132.366 129.319C130.453 127.533 127.913 126.553 125.21 126.553C122.508 126.553 119.963 127.537 118.055 129.319C116.142 131.101 115.088 133.477 115.088 136.005C115.088 138.533 116.142 140.905 118.05 142.687C118.366 142.982 118.705 143.246 119.053 143.498C117.154 144.14 115.371 145.076 113.793 146.277C112.372 147.361 111.137 148.636 110.124 150.062C109.892 150.392 109.516 150.583 109.103 150.583C108.69 150.583 108.318 150.392 108.081 150.062C105.904 146.984 102.765 144.708 99.1663 143.493C101.571 141.763 103.122 139.049 103.122 136.001C103.122 133.473 102.068 131.097 100.155 129.319C98.2422 127.533 95.7024 126.553 93 126.553C90.2976 126.553 87.7485 127.537 85.8447 129.319C83.9317 131.101 82.8777 133.477 82.8777 136.005C82.8777 138.533 83.9317 140.905 85.8401 142.687C86.1512 142.977 86.4809 143.251 86.8245 143.498C83.2306 144.716 80.0917 146.988 77.914 150.067C77.6819 150.396 77.3058 150.587 76.8925 150.587C76.4793 150.587 76.1078 150.396 75.871 150.067C73.6886 146.984 70.5452 144.716 66.942 143.502C69.3518 141.772 70.9073 139.058 70.9073 136.01C70.9073 133.482 69.8533 131.106 67.9449 129.328C66.0319 127.542 63.492 126.562 60.7896 126.562C58.0873 126.562 55.5428 127.546 53.6344 129.328C51.7213 131.11 50.6673 133.486 50.6673 136.014C50.6673 138.542 51.7213 140.914 53.6297 142.696C53.9408 142.986 54.2751 143.251 54.6234 143.498C52.1671 144.33 49.9105 145.657 48.0067 147.435C44.7936 150.44 42.9177 154.429 42.732 158.665L42.7088 159.164L43.0152 159.575C54.4052 174.86 73.0897 183.987 93 183.987C112.91 183.987 131.599 174.86 142.985 159.575L143.291 159.164L143.268 158.665V158.652ZM45.9405 158.288C46.2098 154.984 47.7328 151.888 50.2587 149.529C53.0725 146.902 56.815 145.458 60.7943 145.458C65.809 145.458 70.4569 147.795 73.2243 151.706C74.0462 152.868 75.4206 153.557 76.8971 153.557C78.3737 153.557 79.7481 152.863 80.57 151.706C83.3374 147.795 87.9853 145.458 93 145.458V142.488C91.1473 142.488 89.4015 141.815 88.0967 140.588C86.7873 139.366 86.063 137.735 86.063 136.005C86.063 134.275 86.7827 132.645 88.0967 131.422C89.4061 130.199 91.1473 129.523 93.0046 129.523C94.8619 129.523 96.6032 130.195 97.9126 131.422C99.222 132.645 99.9463 134.271 99.9463 136.005C99.9463 139.578 96.8307 142.488 93.0046 142.488V145.458C98.0194 145.458 102.663 147.795 105.435 151.706C106.257 152.868 107.631 153.562 109.107 153.562C110.584 153.562 111.958 152.868 112.78 151.706C113.616 150.526 114.633 149.477 115.803 148.584C118.487 146.537 121.737 145.458 125.21 145.458C133.048 145.458 139.47 151.055 140.06 158.288C129.241 172.523 111.689 181.008 93 181.008C74.3108 181.008 56.7639 172.527 45.9405 158.288ZM53.848 136.005C53.848 134.271 54.5677 132.645 55.8817 131.422C57.1911 130.199 58.937 129.523 60.7896 129.523C62.6423 129.523 64.3882 130.195 65.6976 131.422C67.007 132.645 67.7313 134.271 67.7313 136.005C67.7313 139.578 64.6157 142.488 60.7896 142.488C58.937 142.488 57.1911 141.815 55.8817 140.588C54.5723 139.366 53.848 137.735 53.848 136.005ZM118.269 136.005C118.269 134.271 118.988 132.645 120.302 131.422C121.612 130.199 123.358 129.523 125.21 129.523C127.063 129.523 128.809 130.195 130.118 131.422C131.428 132.645 132.152 134.271 132.152 136.005C132.152 139.578 129.036 142.488 125.21 142.488C123.358 142.488 121.612 141.815 120.302 140.588C118.993 139.366 118.269 137.735 118.269 136.005Z" fill="#EBD85C"/>
<path d="M93.3672 157.876C93.3672 157.876 93.3392 157.914 93.3251 157.935C93.3392 157.914 93.3532 157.897 93.3672 157.876Z" fill="#010101"/>
<path d="M150.855 157.876V168.299C150.855 197.957 125.108 222 93.3482 222C61.5883 222 35.8414 197.957 35.8414 168.299V157.876H38.827C49.864 175.246 70.1505 186.888 93.3482 186.888C116.546 186.888 136.828 175.246 147.869 157.876H150.855Z" fill="#592124"/>
<mask id="mask1_64_1296" style="mask-type:luminance" maskUnits="userSpaceOnUse" x="35" y="157" width="116" height="65">
<path d="M150.855 157.876V168.299C150.855 197.957 125.108 222 93.3482 222C61.5883 222 35.8414 197.957 35.8414 168.299V157.876H38.827C49.864 175.246 70.1505 186.888 93.3482 186.888C116.546 186.888 136.828 175.246 147.869 157.876H150.855Z" fill="white"/>
</mask>
<g mask="url(#mask1_64_1296)">
<path d="M134.093 174.673L165.82 206.538L168.36 204.331L130.926 166.734L129.009 216.272L93.3436 180.124L57.6833 216.272L55.761 166.734L18.327 204.331L20.8715 206.538L52.5989 174.673L54.2519 217.365L56.685 217.282L49.214 224.857L51.7631 227.051L93.3436 184.906L134.924 227.051L137.478 224.857L130.007 217.282L132.44 217.365L134.093 174.673Z" fill="#9A8266"/>
<path d="M93.3436 206.694C76.2564 206.694 60.1906 200.429 48.1042 189.056C36.0271 177.682 29.3733 162.563 29.3733 146.485C29.3733 130.408 36.0271 115.284 48.1042 103.915C60.186 92.5377 76.2517 86.2766 93.3436 86.2766C110.435 86.2766 126.497 92.542 138.583 103.915C150.66 115.288 157.314 130.408 157.314 146.485C157.314 162.563 150.66 177.687 138.583 189.056C126.501 200.433 110.435 206.694 93.3436 206.694ZM93.3436 89.5849C60.0281 89.5849 32.9207 115.111 32.9207 146.485C32.9207 177.86 60.0235 203.386 93.3436 203.386C126.664 203.386 153.766 177.86 153.766 146.485C153.766 115.111 126.664 89.5849 93.3436 89.5849Z" fill="#9A8266"/>
</g>
<path d="M67.3367 160.499L70.8842 161.991L71.3253 161.917L73.2987 162.524L75.8618 163.838L77.1944 162.476L78.7545 162.814L80.7001 162.793L81.7169 162.879L81.8191 163.413L82.5945 163.669L83.7553 161.657C83.7553 161.657 87.4049 156.48 88.2686 155.998L89.8844 155.903L92.1689 157.178L92.7586 158.626L93.5944 159.697L93.743 160.477L95.4007 161.561L97.8709 157.087L98.0612 156.167L98.9574 155.383L99.1013 154.468L99.6492 154.715L100.118 155.274L100.244 157.629L100.494 158.478L101.126 159.181L101.627 160.156L102.802 160.855L104.608 161.531L105.899 162.589L106.995 163.595L109.2 164.462L111.522 164.505L112.799 164.297L114.234 163.721L115.348 163.621L116.857 163.924L119.541 163.482L119.142 165.199L116.314 165.836L112.548 167.514L104.153 169.192L100.22 170.476L95.8696 171.699L96.2736 173.836L94.0123 174.591L92.0993 177.448L89.4108 174.5L88.7376 173.086L87.7114 173.893L85.6916 172.319L85.3898 171.434L83.8018 171.443L83.096 170.84L82.3763 170.875L82.0652 171.391H81.0204L80.259 170.714L81.1551 169.21L79.4325 168.265L78.3506 168.317L76.3447 167.801L72.6161 166.552L68.7994 165.316L66.4731 164.766L67.3507 160.512L67.3367 160.499Z" fill="#9A8266"/>
<path d="M104.683 202.198H96.0228L93.3437 194.506L90.6691 202.198H82.0094L89.0161 206.95L86.337 214.642L93.3437 209.89L100.35 214.642L97.6758 206.95L104.683 202.198Z" fill="#EBD85C"/>
<path d="M183.581 53.8435L94.6019 5.87075L93.8033 4.57431L93 5.0079L92.1967 4.57431L91.3981 5.87075L2.41913 53.8435L11.0881 67.8659L93 23.7045L174.912 67.8659L183.581 53.8435Z" fill="#592124"/>
<path d="M37.3681 111.617L42.0849 111.828L44.5947 121.204L44.2539 122.055L43.9997 123.667L40.8786 124.132C40.6244 124.168 40.4567 123.842 40.619 123.619L41.4628 122.435L40.0673 122.87C39.667 122.997 39.2505 122.737 39.1315 122.291L37.7035 116.851C37.4871 116.018 37.3735 115.161 37.3735 114.291V111.605L37.3681 111.617Z" fill="#491D21"/>
<path d="M50.1661 111.394L54.3907 108.689L55.8619 109.987C56.3596 110.398 56.7274 110.983 56.9167 111.653L57.2954 113.006C57.5063 113.76 57.9012 114.437 58.4313 114.95L59.3346 115.819L60.1298 117.328L58.5341 119.761L60.4219 121.18C60.8005 121.464 61.244 121.602 61.693 121.59L62.1149 121.572C62.3259 121.566 62.5098 121.717 62.5747 121.941L60.4597 122.852C59.8918 123.1 59.2805 123.184 58.6747 123.1L57.3873 122.925C56.9816 122.87 56.6192 122.617 56.392 122.224L56.4948 121.602L52.9951 116.471C52.1134 115.179 51.6049 114.292 51.1668 112.734L50.1607 111.382L50.1661 111.394Z" fill="#491D21"/>
<path d="M63.8026 83.1285C63.6782 82.8206 63.4618 82.5731 63.1914 82.4282L62.2394 81.909C61.9743 81.7641 61.9094 81.3657 62.1149 81.1302L62.6234 80.5386C62.6829 80.4722 62.7154 80.3756 62.7154 80.279C62.7154 80.0737 62.5639 79.9047 62.38 79.9047H62.2664C62.1744 79.9047 62.0825 79.947 62.0176 80.0254L61.5199 80.6352C61.3523 80.8404 61.1467 80.9974 60.9195 81.1L60.1081 81.4562C59.4482 81.746 58.8803 82.241 58.4692 82.8809L57.4414 84.4928L57.4739 84.5653L57.1115 84.9335L53.4495 86.3462L52.6976 86.2013C51.6915 86.0081 48.776 82.8749 47.7699 83.05L46.7421 83.2311L46.0985 82.5127L46.0876 81.3717L46.9315 81.5287C47.2182 81.583 47.4994 81.414 47.6184 81.1242C47.7537 80.7982 47.824 80.442 47.824 80.0858V79.7236C47.824 79.6753 47.851 79.627 47.8889 79.6089L48.4028 79.3372L47.824 77.176C45.3087 77.4537 42.2147 77.9185 42.2147 77.9185C43.3019 80.4903 41.5115 81.426 41.5115 81.426L40.3323 81.6554C40.1214 81.2208 39.7319 80.9249 39.2883 80.8646L38.7582 80.7921C38.3147 80.7318 37.9469 80.3756 37.8387 79.8806C37.8116 79.7598 37.7521 79.6451 37.7035 79.5304C37.6277 79.3553 37.5574 78.7697 37.5033 78.1359C37.406 77.0069 37.4817 75.872 37.7305 74.7732C37.8116 74.4231 37.8657 74.1031 37.8549 73.9643L37.9739 73.2096C37.9631 73.0889 37.6331 71.7547 37.5845 71.6461L36.4377 70.0583L35.9834 69.8651L35.8211 66.9674C35.8103 66.7621 35.8481 66.5629 35.9347 66.3818L36.2051 65.8203C36.627 65.6151 37.3573 65.2528 37.5412 65.114C38.3958 64.4922 37.2599 64.631 37.2599 64.631L36.6974 64.8001L37.7576 62.6086C37.9198 62.2766 37.8928 61.8721 37.6872 61.5703L37.4168 61.5823C36.9191 61.6004 36.4485 61.8178 36.0861 62.1921L34.4417 63.8945C34.3011 64.0454 34.1983 64.2326 34.1551 64.4439L33.9062 65.6392C33.8413 65.9531 33.9062 66.2852 34.0793 66.5448C34.2308 66.7681 34.3011 67.0519 34.2687 67.3296L33.8792 70.9759L33.3924 71.6943L32.5702 72.7025C32.4187 72.9199 32.5702 75.8901 32.5702 76.1617L32.8785 77.9547C32.8785 78.329 33.0678 79.7538 33.3329 79.9832L33.8197 81.0215L34.9178 82.893C35.5452 83.9616 36.0861 85.0965 36.5297 86.2738L37.3356 88.4229V90.6989C37.3356 91.4535 37.4492 92.2021 37.6764 92.9145L37.8928 94.5445L47.2073 95.0093C47.7699 95.0395 48.3378 93.977 48.8463 93.7114L49.6306 93.2948L49.7064 91.4233C49.7064 91.4233 49.7064 91.4113 49.7064 91.4052C49.7442 90.6083 50.6421 90.2642 51.1344 90.8498L51.7456 91.8821C52.0431 92.3832 52.4867 92.7515 53.0005 92.9265C53.0005 92.9265 53.0114 92.9265 53.0168 92.9265C53.4928 93.0835 54.0012 92.8964 54.3582 92.504C54.5205 92.3228 54.7477 92.2142 54.9911 92.2142H55.4401C55.5699 92.2142 55.6997 92.184 55.8187 92.1176L56.6842 91.6648C57.0195 91.4897 57.2575 91.1396 57.317 90.7291C57.3657 90.3789 57.5442 90.071 57.8093 89.8779L57.9229 89.7933C58.1987 89.5941 58.3826 89.2741 58.4205 88.9119L58.5828 87.5234L59.7728 85.2595V84.2151L60.714 82.8387L63.1805 83.5028L63.5375 83.9797C63.5754 84.028 63.6403 84.028 63.6728 83.9797C63.8621 83.7442 63.9108 83.4062 63.7918 83.1164L63.8026 83.1285Z" fill="#491D21"/>
<path d="M42.2201 77.9061L47.8294 77.1635V73.5534H45.9795C45.3088 73.5534 44.6434 73.6318 43.9889 73.7948L40.7867 74.5736L42.2256 77.9061H42.2201Z" fill="#9A8266"/>
<path d="M50.9721 100.195L47.9322 95.0095L47.8835 94.6111L37.8225 94.0678L37.3681 95.6253V111.883L50.1661 112.384L56.2731 107.971L50.9721 100.195Z" fill="#9A8266"/>
<path d="M131.62 84.9382C132.793 84.9382 133.745 83.5564 133.745 81.852C133.745 80.1475 132.793 78.7658 131.62 78.7658C130.446 78.7658 129.495 80.1475 129.495 81.852C129.495 83.5564 130.446 84.9382 131.62 84.9382Z" fill="#BBA381"/>
<path d="M140.51 91.1686C140.36 90.7981 140.179 90.4487 139.966 90.1311L136.178 84.4457L134.447 85.0651L132.938 87.6907L131.343 90.4169L129.368 89.1835L128.951 84.9645L128.067 85.5944L127.08 88.8341C126.667 90.1946 126.314 91.5762 126.019 92.9843L125.847 93.8154C125.702 94.5195 125.39 95.1547 124.95 95.6311L123.727 96.9651L121.121 96.6634L120.759 97.2457L120.872 98.0344L121.126 98.5479L121.692 99.1567C122.1 99.5908 122.63 99.8025 123.165 99.739L124.488 99.5855L125.118 101.354C125.181 101.539 125.385 101.56 125.476 101.401L128.947 95.3347C129.332 94.6624 129.604 93.9054 129.749 93.1008L129.943 92.0473L132.386 94.6412L134.792 96.0017L137.388 96.5205L140.727 95.6047L140.882 94.6306C141.067 93.4607 140.931 92.2432 140.505 91.1739L140.51 91.1686Z" fill="#9A8266"/>
<path d="M129.825 113.666L133.423 112.417L137.515 113.73L139.658 120.204C140.211 120.898 140.46 121.882 140.324 122.846L140.283 123.126L140.261 123.168C140.007 123.592 139.64 123.888 139.228 124.005L138.498 124.206C138.081 124.322 137.687 123.925 137.687 123.391L138.258 121.962L137.687 120.469L136.649 121.31L135.557 121.702L135.68 122.163C135.793 122.591 135.689 123.063 135.412 123.354C135.272 123.502 135.095 123.592 134.909 123.613L132.648 123.83L131.058 124.291C130.791 124.365 130.528 124.153 130.478 123.82C130.442 123.565 130.537 123.311 130.718 123.184L131.162 122.877L132.39 122.295V121.644L129.427 121.252L129.83 113.672L129.825 113.666Z" fill="#9A8266"/>
<path d="M141.489 105.255C141.811 104.26 141.761 103.132 141.353 102.185L140.873 101.073C140.519 100.258 140.415 98.8919 140.483 97.9655L140.773 95.3081L139.278 95.7633C139.133 95.8057 138.988 95.8427 138.843 95.8745L138.349 95.9804C137.515 96.1604 136.659 96.1551 135.825 95.9804C135.272 95.8586 134.733 95.6681 134.212 95.4087L132.395 94.5035L130.36 101.025C130.012 101.999 129.731 103.005 129.531 104.043C128.978 106.853 128.997 109.797 129.581 112.597L129.663 113.809L131.933 113.026C132.984 112.666 134.094 112.661 135.145 113.01L138.603 114.169L141.484 105.255H141.489Z" fill="#491D21"/>
<path d="M135.865 83.9537L141.892 91.2536L145.422 92.8575V93.7575C145.422 93.7575 147.828 94.4562 148.389 93.7575C148.951 93.0587 149.513 94.0698 149.513 94.0698C149.513 94.0698 148.793 97.463 145.983 96.6637L144.701 96.7854L144.094 98.5641L138.126 92.757L135.87 88.3527V83.9537H135.865Z" fill="#9A8266"/>
<path d="M128.579 86.6213L128.901 88.9611L131.321 91.1897C131.434 91.2956 131.593 91.2744 131.688 91.142L135.113 86.2719L136.998 84.9432L134.832 82.4182C134.47 81.9523 134.053 80.9518 133.949 80.3166L133.16 77.5004L131.511 74.9383C131.285 74.5889 130.945 74.3824 130.582 74.3824C130.179 74.3824 129.803 74.6365 129.585 75.06L129.159 75.8752L127.397 81.28C127.066 82.2964 127.116 83.4451 127.537 84.4086L128.579 86.6213ZM131.584 84.3133C130.727 84.0115 129.264 83.0005 130.292 79.6919C130.419 79.2896 130.754 79.0461 131.099 79.1255C131.801 79.2843 132.934 79.7978 133.319 81.4547C133.319 81.4547 133.496 82.9316 132.934 83.8263C132.617 84.3292 132.073 84.488 131.584 84.3133Z" fill="#491D21"/>
<path d="M133.247 74.9597C133.568 71.9635 131.588 71.1007 131.588 71.1007L130.85 69.3749L130.111 71.1007C130.111 71.1007 128.126 71.9635 128.453 74.9597L127.759 75.8226L128.453 77.6065H128.96C128.96 77.6065 129.101 75.9337 130.85 75.8226C132.603 75.939 132.739 77.6065 132.739 77.6065H133.247L133.94 75.8226L133.247 74.9597Z" fill="#9A8266"/>
<path d="M87.0751 49.0092H83.2723C82.9194 49.4298 82.2461 49.7116 81.4753 49.7116H77.4125C76.2749 49.7116 75.3509 49.0959 75.3509 48.3371C75.3509 47.5783 76.2749 46.9626 77.4125 46.9626H81.4753C82.2461 46.9626 82.9194 47.2445 83.2723 47.6651H87.0751V49.0135V49.0092Z" fill="#491D21"/>
<path d="M87.0751 54.0606H83.2723C82.9194 54.4812 82.2461 54.763 81.4753 54.763H77.4125C76.2749 54.763 75.3509 54.1473 75.3509 53.3885C75.3509 52.6297 76.2749 52.014 77.4125 52.014H81.4753C82.2461 52.014 82.9194 52.2958 83.2723 52.7164H87.0751V54.0649V54.0606Z" fill="#491D21"/>
<path d="M87.0751 59.1163H83.2723C82.9194 59.5368 82.2461 59.8187 81.4753 59.8187H77.4125C76.2749 59.8187 75.3509 59.203 75.3509 58.4442C75.3509 57.6854 76.2749 57.0697 77.4125 57.0697H81.4753C82.2461 57.0697 82.9194 57.3515 83.2723 57.7721H87.0751V59.1206V59.1163Z" fill="#491D21"/>
<path d="M98.8179 45.8526H102.593C102.946 45.4191 103.61 45.1242 104.381 45.1242H108.42C109.553 45.1242 110.468 45.7659 110.468 46.5551C110.468 47.3442 109.549 47.9859 108.42 47.9859H104.381C103.614 47.9859 102.946 47.6911 102.593 47.2575H98.8179V45.857V45.8526Z" fill="#491D21"/>
<path d="M98.8179 50.2579H102.593C102.946 49.8244 103.61 49.5295 104.381 49.5295H108.42C109.553 49.5295 110.468 50.1712 110.468 50.9604C110.468 51.7495 109.549 52.3912 108.42 52.3912H104.381C103.614 52.3912 102.946 52.0964 102.593 51.6628H98.8179V50.2623V50.2579Z" fill="#491D21"/>
<path d="M98.8179 54.8931H102.593C102.946 54.4595 103.61 54.1646 104.381 54.1646H108.42C109.553 54.1646 110.468 54.8064 110.468 55.5955C110.468 56.3846 109.549 57.0264 108.42 57.0264H104.381C103.614 57.0264 102.946 56.7315 102.593 56.2979H98.8179V54.8974V54.8931Z" fill="#491D21"/>
<path d="M98.8179 59.5238H102.593C102.946 59.0903 103.61 58.7954 104.381 58.7954H108.42C109.553 58.7954 110.468 59.4371 110.468 60.2263C110.468 61.0154 109.549 61.6571 108.42 61.6571H104.381C103.614 61.6571 102.946 61.3623 102.593 60.9287H98.8179V59.5282V59.5238Z" fill="#491D21"/>
</svg>
