<svg width="247" height="324" viewBox="0 0 247 324" fill="none" xmlns="http://www.w3.org/2000/svg">
<path d="M44.3628 28.818L51.9777 24.5961C58.0053 21.2543 65.4895 23.2403 68.6898 29.0125L93.7417 74.1975L64.307 90.5169L39.2551 45.3319C36.0548 39.5597 38.3453 32.1543 44.3628 28.818Z" fill="#491C20"/>
<path d="M43.1957 47.796L35.1388 52.263C33.8672 51.746 32.1034 51.9049 30.4659 52.8128L21.8565 57.5861C19.4455 58.9229 18.2452 61.3773 19.1855 63.0733C20.1205 64.7597 22.8435 65.0516 25.2545 63.7149L33.8639 58.9416C35.5014 58.0337 36.5706 56.622 36.8058 55.2695L44.8626 50.8026L43.201 47.8056L43.1957 47.796Z" fill="#491C20"/>
<path d="M48.4261 57.23L40.3693 61.6969C39.0976 61.1799 37.3338 61.3389 35.6964 62.2468L27.087 67.0201C24.6759 68.3568 23.4756 70.8113 24.416 72.5073C25.3509 74.1937 28.0739 74.4856 30.4849 73.1488L39.0943 68.3755C40.7318 67.4676 41.801 66.0559 42.0362 64.7035L50.0931 60.2365L48.4315 57.2396L48.4261 57.23Z" fill="#491C20"/>
<path d="M70.9982 40.7092L79.0551 36.2422C80.3054 36.7207 82.0585 36.5424 83.6959 35.6346L92.3053 30.8613C94.7164 29.5245 95.9434 27.1182 95.0405 25.4897C94.1375 23.8611 91.4466 23.627 89.0356 24.9638L80.4262 29.7371C78.7887 30.645 77.7088 32.0374 77.4523 33.3513L69.3954 37.8183L70.9929 40.6996L70.9982 40.7092Z" fill="#491C20"/>
<path d="M76.9873 51.5115L85.0441 47.0445C86.2945 47.523 88.0475 47.3447 89.685 46.4369L98.2944 41.6636C100.705 40.3268 101.932 37.9205 101.03 36.292C100.127 34.6634 97.4357 34.4294 95.0247 35.7661L86.4153 40.5394C84.7778 41.4473 83.6979 42.8397 83.4413 44.1536L75.3845 48.6206L76.982 51.5019L76.9873 51.5115Z" fill="#491C20"/>
<path d="M82.982 62.3236L91.0388 57.8567C92.2892 58.3351 94.0422 58.1569 95.6797 57.249L104.289 52.4757C106.7 51.139 107.927 48.7327 107.024 47.1041C106.121 45.4756 103.43 45.2415 101.019 46.5782L92.41 51.3515C90.7725 52.2594 89.6926 53.6518 89.436 54.9658L81.3792 59.4327L82.9766 62.314L82.982 62.3236Z" fill="#491C20"/>
<path d="M53.9185 67.1362L45.8617 71.6032C44.59 71.0862 42.8262 71.2452 41.1887 72.153L32.5793 76.9263C30.1683 78.2631 28.968 80.7175 29.9083 82.4136C30.8433 84.0999 33.5663 84.3918 35.9773 83.0551L44.5867 78.2818C46.2242 77.3739 47.2934 75.9622 47.5286 74.6097L55.5854 70.1428L53.9238 67.1459L53.9185 67.1362Z" fill="#491C20"/>
<path d="M59.4109 77.0426L51.354 81.5095C50.0823 80.9926 48.3186 81.1515 46.6811 82.0594L38.0717 86.8327C35.6607 88.1694 34.4604 90.6239 35.4007 92.3199C36.3357 94.0063 39.0586 94.2982 41.4697 92.9614L50.0791 88.1881C51.7165 87.2803 52.7857 85.8686 53.021 84.5161L61.0778 80.0491L59.4162 77.0522L59.4109 77.0426Z" fill="#491C20"/>
<path d="M194.08 176.288C182.38 155.184 164.978 140.215 147.255 133.927C125.28 126.13 107.141 110.826 96.039 90.8012L75.0849 53.0073L56.2186 63.4674L77.1727 101.261C88.2802 121.295 91.6459 144.778 86.6177 167.547C82.5612 185.909 86.039 208.599 97.7395 229.702C115.83 262.331 147.558 280.305 173.042 274.177L188.557 302.161L207.424 291.701L191.908 263.717C210.597 245.355 212.171 208.917 194.08 176.288Z" fill="#582023"/>
<mask id="mask0_1_397" style="mask-type:luminance" maskUnits="userSpaceOnUse" x="56" y="53" width="152" height="250">
<path d="M194.08 176.288C182.38 155.184 164.978 140.215 147.255 133.927C125.28 126.13 107.141 110.826 96.039 90.8012L75.0849 53.0073L56.2186 63.4674L77.1727 101.261C88.2802 121.295 91.6459 144.778 86.6177 167.547C82.5612 185.909 86.039 208.599 97.7395 229.702C115.83 262.331 147.558 280.305 173.042 274.177L188.557 302.161L207.424 291.701L191.908 263.717C210.597 245.355 212.171 208.917 194.08 176.288Z" fill="white"/>
</mask>
<g mask="url(#mask0_1_397)">
<path d="M193.558 118.184L48.5242 198.594L109.714 308.96L254.748 228.549L193.558 118.184Z" fill="#988165"/>
</g>
<path d="M74.6188 84.7181L178.045 271.263M76.6848 83.5727L180.111 270.118M78.5442 82.5418L181.97 269.087M80.4036 81.5109L183.83 268.056M82.263 80.48L185.689 267.025M84.1224 79.449L187.549 265.994M175.979 272.409L72.5528 85.8636L86.1884 78.3036L189.615 264.849L175.979 272.409Z" stroke="black"/>
</svg>
