<svg width="121" height="113" viewBox="0 0 121 113" fill="none" xmlns="http://www.w3.org/2000/svg">
<path d="M121 48.791V59.1682C121 88.7028 93.913 112.647 60.5 112.647C27.087 112.647 0 88.7028 0 59.1682V48.791H3.14102C14.7525 66.0864 36.0948 77.681 60.5 77.681C84.9052 77.681 106.243 66.0864 117.859 48.791H121Z" fill="#582023"/>
<mask id="mask0_1_280" style="mask-type:luminance" maskUnits="userSpaceOnUse" x="0" y="47" width="121" height="66">
<path d="M121 47.5351V58.1162C121 88.2236 93.913 112.63 60.5 112.63C27.087 112.63 0 88.2236 0 58.1162V47.5351H3.14102C14.7525 65.1666 36.0948 76.987 60.5 76.987C84.9052 76.987 106.243 65.1666 117.859 47.5351H121Z" fill="white"/>
</mask>
<g mask="url(#mask0_1_280)">
<path d="M103.37 64.5831L136.749 96.9323L139.421 94.696L100.039 56.5247L98.0212 106.814L60.5 70.1188L22.9787 106.814L20.9613 56.5247L-18.4211 94.696L-15.7491 96.9323L17.6297 64.5831L19.3736 107.921L21.9334 107.838L14.0686 115.528L16.7553 117.758L60.5 74.9714L104.245 117.758L106.931 115.528L99.0715 107.838L101.626 107.921L103.37 64.5831Z" fill="#988165"/>
<path d="M60.5 97.0924C42.5234 97.0924 25.6215 90.7305 12.906 79.1855C0.200253 67.6404 -6.79987 52.2948 -6.79987 35.9688C-6.79987 19.6427 0.200253 4.29707 12.906 -7.24795C25.6215 -18.793 42.5234 -25.1548 60.5 -25.1548C78.4765 -25.1548 95.3784 -18.793 108.094 -7.24795C120.8 4.29707 127.8 19.6427 127.8 35.9688C127.8 52.2948 120.8 67.6404 108.094 79.1855C95.3833 90.736 78.4814 97.0924 60.5 97.0924ZM60.5 -21.7894C25.4505 -21.7894 -3.06777 4.12081 -3.06777 35.9688C-3.06777 67.8167 25.4456 93.7269 60.5 93.7269C95.5543 93.7269 124.068 67.8167 124.068 35.9688C124.068 4.12081 95.5494 -21.7894 60.5 -21.7894Z" fill="#988165"/>
</g>
<path d="M60.5 84.7479C93.9132 84.7479 121 66.5409 121 44.0815C121 21.622 93.9132 3.41504 60.5 3.41504C27.0868 3.41504 0 21.622 0 44.0815C0 66.5409 27.0868 84.7479 60.5 84.7479Z" fill="#988165"/>
<path d="M60.3338 81.3329C93.0564 81.3329 119.583 63.1259 119.583 40.6664C119.583 18.207 93.0564 0 60.3338 0C27.6113 0 1.08438 18.207 1.08438 40.6664C1.08438 63.1259 27.6113 81.3329 60.3338 81.3329Z" fill="#DBD1C6"/>
</svg>
